<svg xmlns="http://www.w3.org/2000/svg" xmlns:xlink="http://www.w3.org/1999/xlink" viewBox="0 0 880 480" preserveAspectRatio="xMidYMin slice"><defs><clipPath id="__lottie_element_2"><rect width="880" height="480" x="0" y="0"></rect></clipPath><filter id="__lottie_element_6" x="-100%" y="-100%" width="300%" height="300%"><feGaussianBlur result="filter_result_0" stdDeviation="45 45" edgeMode="duplicate"></feGaussianBlur></filter><filter id="__lottie_element_9" x="-100%" y="-100%" width="300%" height="300%"><feGaussianBlur result="filter_result_0" stdDeviation="60 60" edgeMode="duplicate"></feGaussianBlur></filter><filter id="__lottie_element_12" x="-100%" y="-100%" width="300%" height="300%"><feGaussianBlur result="filter_result_0" stdDeviation="75 75" edgeMode="duplicate"></feGaussianBlur></filter><filter id="__lottie_element_15" x="-100%" y="-100%" width="300%" height="300%"><feGaussianBlur result="filter_result_0" stdDeviation="465 465" edgeMode="duplicate"></feGaussianBlur></filter><filter id="__lottie_element_18" x="-100%" y="-100%" width="300%" height="300%"><feGaussianBlur result="filter_result_0" stdDeviation="60 60" edgeMode="duplicate"></feGaussianBlur></filter><filter id="__lottie_element_21" x="-100%" y="-100%" width="300%" height="300%"><feGaussianBlur result="filter_result_0" stdDeviation="45 45" edgeMode="duplicate"></feGaussianBlur></filter><filter id="__lottie_element_24" x="-100%" y="-100%" width="300%" height="300%"><feGaussianBlur result="filter_result_0" stdDeviation="60 60" edgeMode="duplicate"></feGaussianBlur></filter><filter id="__lottie_element_27" x="-100%" y="-100%" width="300%" height="300%"><feGaussianBlur result="filter_result_0" stdDeviation="45 45" edgeMode="duplicate"></feGaussianBlur></filter></defs><g clip-path="url(#__lottie_element_2)"><g filter="url(#__lottie_element_27)" transform="matrix(1.1411612033843994,0,0,1.1411612033843994,372.40753173828125,336.7567138671875)" opacity="1" style="display: block;"><g opacity="1" transform="matrix(1,0,0,1,0,0)"></g><g opacity="1" transform="matrix(1,0,0,1,0,0)"></g><g opacity="1" transform="matrix(1,0,0,1,-337.3160095214844,-139.8489990234375)"><path fill="rgb(252,230,230)" fill-opacity="1" d=" M-186.45396423339844,-52.37330627441406 C-197.30296325683594,98.4596939086914 1406.5560302734375,-130.73500061035156 410.6090087890625,-146.31399536132812 C289.9776306152344,-148.2010040283203 723.4739990234375,37.6619987487793 602.8270263671875,37.6619987487793 C482.1809997558594,37.6619987487793 -287.5290222167969,364.0608825683594 -168.33468627929688,345.3998718261719 C58.04832077026367,309.9568786621094 -177.79896545410156,-172.7093048095703 -186.45396423339844,-52.37330627441406z"></path></g></g><g filter="url(#__lottie_element_24)" transform="matrix(1.3603800535202026,0,0,1.3603800535202026,315.4014587402344,623.6152954101562)" opacity="1" style="display: block;"><g opacity="1" transform="matrix(1,0,0,1,0,0)"></g><g opacity="1" transform="matrix(1,0,0,1,-337.3160095214844,-139.8489990234375)"><path fill="rgb(208,231,251)" fill-opacity="1" d=" M0,-218.4499969482422 C120.56255340576172,-218.4499969482422 218.4499969482422,-120.56255340576172 218.4499969482422,0 C218.4499969482422,120.56255340576172 120.56255340576172,218.4499969482422 0,218.4499969482422 C-120.56255340576172,218.4499969482422 -218.4499969482422,120.56255340576172 -218.4499969482422,0 C-218.4499969482422,-120.56255340576172 -120.56255340576172,-218.4499969482422 0,-218.4499969482422z"></path></g></g><g filter="url(#__lottie_element_21)" transform="matrix(1.3768209218978882,0,0,1.3768209218978882,716.4783325195312,540.0145874023438)" opacity="1" style="display: block;"><g opacity="1" transform="matrix(1,0,0,1,0,0)"></g><g opacity="1" transform="matrix(1,0,0,1,-337.3160095214844,-139.8489990234375)"><path fill="rgb(251,215,215)" fill-opacity="1" d=" M149.8751983642578,-265.364990234375 C163.49819946289062,-3.1670000553131104 277.49639892578125,-123.80979919433594 277.49639892578125,-3.1628000736236572 C277.49639892578125,117.48419952392578 -23.40999984741211,88.05400085449219 0,218.4499969482422 C21.319000244140625,337.197998046875 -218.4499969482422,120.64700317382812 -218.4499969482422,0 C-218.4499969482422,-120.64700317382812 143.61520385742188,-385.8489990234375 149.8751983642578,-265.364990234375z"></path></g></g><g filter="url(#__lottie_element_18)" transform="matrix(1.190488338470459,0,0,1.190488338470459,1107.7864990234375,677.1069946289062)" opacity="1" style="display: block;"><g opacity="1" transform="matrix(1,0,0,1,0,0)"></g><g opacity="1" transform="matrix(1,0,0,1,-337.3160095214844,-139.8489990234375)"><path fill="rgb(254,245,245)" fill-opacity="1" d=" M10.392000198364258,138.93699645996094 C131.03900146484375,138.93699645996094 -24.528141021728516,-315.2499694824219 -24.528141021728516,-194.6029815673828 C-24.528141021728516,-73.95628356933594 120.64700317382812,218.4499969482422 0,218.4499969482422 C-120.64700317382812,218.4499969482422 54.065757751464844,400.3588562011719 54.065757751464844,279.7128601074219 C54.065757751464844,159.06585693359375 -110.25499725341797,138.93699645996094 10.392000198364258,138.93699645996094z"></path></g></g><g filter="url(#__lottie_element_15)" transform="matrix(0.8529393672943115,0,0,0.8529393672943115,853.8844604492188,384.85064697265625)" opacity="1" style="display: block;"><g opacity="1" transform="matrix(1,0,0,1,0,0)"></g><g opacity="1" transform="matrix(1,0,0,1,-337.3160095214844,-139.8489990234375)"><path fill="rgb(251,239,227)" fill-opacity="1" d=" M508.9766845703125,6.373824596405029 C629.6233520507812,6.373824596405029 306.0871887207031,260.3280334472656 429.2048645019531,212.14561462402344 C491.5626220703125,208.98114013671875 184.3074493408203,-50.97994613647461 63.660457611083984,-50.97994613647461 C-56.98654556274414,-50.97994613647461 202.6743927001953,132.0808563232422 202.6743927001953,11.434853553771973 C202.6743927001953,-109.21214294433594 388.3306884765625,6.373824596405029 508.9766845703125,6.373824596405029z"></path></g></g><g filter="url(#__lottie_element_12)" transform="matrix(1.2452930212020874,0,0,1.2452930212020874,847.5274047851562,390.50518798828125)" opacity="1" style="display: block;"><g opacity="1" transform="matrix(1,0,0,1,0,0)"></g><g opacity="1" transform="matrix(1,0,0,1,-337.3160095214844,-139.8489990234375)"><path fill="rgb(137,176,210)" fill-opacity="1" d=" M0,-218.4499969482422 C120.64600372314453,-218.4499969482422 218.4499969482422,-120.64679718017578 218.4499969482422,0 C218.4499969482422,120.64600372314453 166.82080078125,-49.93280029296875 46.17380142211914,-49.93280029296875 C-74.4729995727539,-49.93280029296875 -67.2239990234375,-350.8630065917969 -67.2239990234375,-471.510009765625 C-67.2239990234375,-592.156982421875 -120.64700317382812,-218.4499969482422 0,-218.4499969482422z"></path></g></g><g filter="url(#__lottie_element_9)" transform="matrix(0.8835828304290771,0,0,0.8835828304290771,589.6799926757812,555.9360961914062)" opacity="1" style="display: block;"><g opacity="1" transform="matrix(1,0,0,1,0,0)"></g><g opacity="1" transform="matrix(1,0,0,1,-337.3160095214844,-139.8489990234375)"><path fill="rgb(208,231,251)" fill-opacity="1" d=" M677.6939697265625,-526.6179809570312 C798.3410034179688,-526.6179809570312 779.60498046875,-273.4410095214844 779.60498046875,-152.79400634765625 C779.60498046875,-32.14699935913086 223.70799255371094,262.7969970703125 103.06099700927734,262.7969970703125 C-17.586000442504883,262.7969970703125 617.7069702148438,35.96699905395508 617.7069702148438,-84.68000030517578 C617.7069702148438,-205.3260040283203 557.0479736328125,-526.6179809570312 677.6939697265625,-526.6179809570312z"></path></g></g><g filter="url(#__lottie_element_6)" transform="matrix(0.205148383975029,-0.8273559212684631,0.8273559212684631,0.205148383975029,498.0302734375,132.25611877441406)" opacity="0.5" style="display: block;"><g opacity="1" transform="matrix(1,0,0,1,0,0)"></g><g opacity="1" transform="matrix(1,0,0,1,-337.3160095214844,-139.8489990234375)"><path fill="rgb(229,241,252)" fill-opacity="1" d=" M778.1583251953125,-422.4349670410156 C898.8043212890625,-422.4349670410156 225.90313720703125,90.78239440917969 701.7219848632812,227.4510040283203 C795.850341796875,273.6691589355469 599.6788940429688,-248.59622192382812 479.0318603515625,-248.59622192382812 C358.38568115234375,-248.59622192382812 -92.80731201171875,292.3547058105469 -64.26731872558594,175.13169860839844 C127.39368438720703,-612.0883178710938 657.5112915039062,-422.4349670410156 778.1583251953125,-422.4349670410156z"></path></g></g></g></svg>